<?xml version="1.0" encoding="iso-8859-1"?>
<!-- Generator: Adobe Illustrator 19.0.0, SVG Export Plug-In . SVG Version: 6.00 Build 0)  -->
<svg version="1.1" id="Layer_1" xmlns="http://www.w3.org/2000/svg" xmlns:xlink="http://www.w3.org/1999/xlink" x="0px" y="0px"
	 viewBox="0 0 512 512" style="enable-background:new 0 0 512 512;" xml:space="preserve">
<g>
	<g>
		<g>
			<path d="M405.327,214.693v-65.359C405.327,66.853,338.474,0,255.994,0S106.66,66.853,106.66,149.333
				c0,11.782,9.551,21.333,21.333,21.333c11.782,0,21.333-9.551,21.333-21.333c0-58.917,47.75-106.667,106.667-106.667
				c58.917,0,106.667,47.75,106.667,106.667v64H121.152c-43.354,0-78.485,35.15-78.485,78.507v141.653
				c0,43.357,35.132,78.507,78.485,78.507h269.675c43.355,0,78.507-35.151,78.507-78.507V291.84
				C469.333,253.441,441.752,221.499,405.327,214.693z M426.667,433.493c0,19.791-16.049,35.84-35.84,35.84H121.152
				c-19.785,0-35.819-16.042-35.819-35.84V291.84c0-19.798,16.034-35.84,35.819-35.84h269.675c19.791,0,35.84,16.049,35.84,35.84
				V433.493z"/>
			<path d="M271.836,277.333h-31.68c-26.603,0-48.171,21.556-48.171,48.149v53.035c0,26.593,21.568,48.149,48.171,48.149h31.68
				c26.587,0,48.149-21.562,48.149-48.149v-53.035C319.985,298.895,298.423,277.333,271.836,277.333z M277.318,378.517
				c0,3.023-2.459,5.483-5.483,5.483h-31.68c-3.044,0-5.504-2.459-5.504-5.483v-53.035c0-3.024,2.46-5.483,5.504-5.483h31.68
				c3.023,0,5.483,2.459,5.483,5.483V378.517z"/>
		</g>
	</g>
</g>
<g>
</g>
<g>
</g>
<g>
</g>
<g>
</g>
<g>
</g>
<g>
</g>
<g>
</g>
<g>
</g>
<g>
</g>
<g>
</g>
<g>
</g>
<g>
</g>
<g>
</g>
<g>
</g>
<g>
</g>
</svg>
