<?xml version="1.0" encoding="utf-8"?>
<!-- Generator: Adobe Illustrator 19.0.0, SVG Export Plug-In . SVG Version: 6.00 Build 0)  -->
<svg version="1.1" id="Capa_1" xmlns="http://www.w3.org/2000/svg" xmlns:xlink="http://www.w3.org/1999/xlink" x="0px" y="0px"
	 viewBox="-239 40.6 480.4 480.4" style="enable-background:new -239 40.6 480.4 480.4;" xml:space="preserve">
<style type="text/css">
	.st0{fill:#FFFFFF;}
</style>
<g>
	<g>
		<path class="st0" d="M230.7,459.1L105.4,333.7c57.9-86.3,35-203.2-51.3-261.1s-203.2-35-261.1,51.3s-35,203.2,51.3,261.1
			c63.4,42.6,146.4,42.6,209.8,0l125.3,125.3c14.2,14.2,37.1,14.2,51.3,0S244.9,473.2,230.7,459.1z M-50.6,401
			c-94.9-0.1-171.9-77.1-172-172c0-95,77-172,172-172s172,77,172,172S44.4,401-50.6,401z M219.4,499.1c-3.8,3.8-9,5.9-14.4,5.9
			c-5.4,0-10.5-2.1-14.3-5.9L68.7,377l28.7-28.7l122.1,122.1C227.3,478.3,227.3,491.1,219.4,499.1z"/>
	</g>
</g>
<g>
	<g>
		<path class="st0" d="M-46.4,73.1l-0.4,16C-5.4,90.1,33.3,109.5,59,142l12.5-10C42.9,95.9-0.3,74.3-46.4,73.1z"/>
	</g>
</g>
<g>
	<g>
		<path class="st0" d="M83.2,148.9l-13.7,8.2c3,5,5.7,10.1,8,15.4l14.6-6.5C89.5,160.1,86.6,154.4,83.2,148.9z"/>
	</g>
</g>
</svg>
