<?xml version="1.0" encoding="utf-8"?>
<!-- Generator: Adobe Illustrator 19.0.0, SVG Export Plug-In . SVG Version: 6.00 Build 0)  -->
<svg version="1.1" id="Layer_1" xmlns="http://www.w3.org/2000/svg" xmlns:xlink="http://www.w3.org/1999/xlink" x="0px" y="0px"
	 viewBox="-234 36.6 489.4 489.4" style="enable-background:new -234 36.6 489.4 489.4;" xml:space="preserve">
<style type="text/css">
	.st0{fill:#070707;}
</style>
<g>
	<g>
		<path class="st0" d="M19.1,526c5.5,0,9.9-4.4,9.9-9.9V156l73.9,73.9c3.9,3.9,10.1,3.9,14,0s3.9-10.1,0-14l-90.8-90.8
			c-1.9-1.9-4.5-2.9-7-2.9s-5.1,1-7,2.9l-90.8,90.8c-3.9,3.9-3.9,10.1,0,14s10.1,3.9,14,0L9.2,156v360.1
			C9.2,521.6,13.6,526,19.1,526z"/>
		<path class="st0" d="M225.1,159.1c5.5,0,9.9-4.4,9.9-9.9V46.5c0-5.5-4.4-9.9-9.9-9.9h-412c-5.5,0-9.9,4.4-9.9,9.9v102.8
			c0,5.5,4.4,9.9,9.9,9.9s9.9-4.4,9.9-9.9V56.4h392.2v92.9C215.2,154.7,219.6,159.1,225.1,159.1z"/>
	</g>
</g>
</svg>
